<svg xmlns="http://www.w3.org/2000/svg" width="58" height="72" fill="none" xmlns:v="https://vecta.io/nano"><g fill="#672521"><path d="M14.883 44.01c1.295 2.673 4.047 4.387 7.541 4.939s7.675-.07 11.709-2.023 7.114-4.851 8.846-7.933 2.095-6.305.8-8.979-4.047-4.387-7.541-4.939-7.675.07-11.709 2.023-7.114 4.851-8.846 7.933-2.095 6.305-.8 8.979z" stroke="#a30c05"/><ellipse cx="10.076" cy="8.637" rx="10.076" ry="8.637" transform="matrix(-.899981 .435928 .435928 .899981 39.1688 22.6509)"/></g><mask id="A" fill="#fff"><path fill-rule="evenodd" d="M15.931 27.509l14.25-6.902 6.1 12.594.018.038.018.038.273.563-.072.035c.495 2.28-1.715 5.287-5.305 7.026s-7.319 1.609-8.801-.193l-.072.035-6.409-13.232z"/></mask><path fill-rule="evenodd" d="M15.931 27.509l14.25-6.902 6.1 12.594.018.038.018.038.273.563-.072.035c.495 2.28-1.715 5.287-5.305 7.026s-7.319 1.609-8.801-.193l-.072.035-6.409-13.232z" fill="#71221e"/><path d="M30.181 20.606l-.436-.9.9-.436.436.9-.9.436zm-14.25 6.902l-.9.436-.436-.9.9-.436.436.9zm20.35 5.691l-.893.449-.003-.007-.003-.007.9-.436zm.036.075l-.9.436-.003-.007-.003-.007.906-.422zm.273.563l.9-.436.436.9-.9.436-.436-.9zm-.072.035l-.977.212-.167-.769.708-.343.436.9zm-14.106 6.833l-.436-.9.708-.343.5.608-.772.635zm-.072.035l.436.9-.9.436-.436-.9.9-.436zm8.277-19.234l-14.25 6.902-.872-1.8 14.25-6.902.872 1.8zm4.764 12.13l-6.1-12.594 1.8-.872 6.1 12.594-1.8.872zm.019.038l-.012-.024 1.787-.898.025.051-1.8.872zm.012.024l-.012-.024 1.8-.872.024.051-1.813.845zm.279.577l-.273-.563 1.8-.872.273.563-1.8.872zm.392-1.301l.072-.035.872 1.8-.072.035-.872-1.8zm-5.305 7.026c1.672-.81 2.989-1.9 3.82-3.01.846-1.129 1.106-2.156.944-2.904l1.954-.424c.333 1.532-.265 3.148-1.297 4.527-1.048 1.399-2.63 2.681-4.549 3.611l-.872-1.8zm-7.593.072c.486.591 1.453 1.023 2.864 1.06 1.386.036 3.058-.322 4.729-1.131l.872 1.8c-1.918.929-3.906 1.376-5.653 1.331-1.722-.044-3.361-.578-4.357-1.789l1.545-1.271zm-1.28-.23l.072-.035.872 1.8-.072.035-.872-1.8zm-5.073-12.768l6.409 13.232-1.8.872-6.409-13.232 1.8-.872z" fill="#a30c05" mask="url(#A)"/><path fill="#672521" d="M29.511 22.529l-2.591 1.255 4.392 9.068 2.591-1.255z"/><path d="M7.746 22.676c2.434 5.024 9.692 6.746 16.345 3.523s9.802-9.985 7.369-15.009-9.692-6.745-16.345-3.523-9.802 9.985-7.369 15.009z" fill="#71221e" stroke="#a30c05"/><ellipse cx="5.758" cy="5.038" rx="5.758" ry="5.038" transform="matrix(-.899981 .435928 .435928 .899981 26.4948 6.39697)" fill="#672521"/><path fill="#dddada" d="M36.293 46.435l-2.591 1.255 8.157 16.841 2.591-1.255z"/></svg>