<svg xmlns="http://www.w3.org/2000/svg" width="370" height="149" fill="#0f0f0f" xmlns:v="https://vecta.io/nano"><path d="M.199 95.409c0 3.98 1.407 7.322 4.225 10.027 2.954 2.836 6.375 4.255 10.268 4.255h36.301V98.739H14.692c-.938 0-1.662-.242-2.164-.725-.595-.572-.894-1.197-.894-1.88v-4.98h39.358V80.138H11.634v-7.552h39.358V61.6H.199v33.809zm132.289 14.282h36.301V98.74h-36.301c-.938 0-1.661-.242-2.164-.725-.594-.572-.893-1.197-.893-1.88V61.6h-11.435v33.807c0 3.98 1.407 7.321 4.225 10.026 2.954 2.836 6.375 4.255 10.267 4.255v.003zM185 61.6h-11.348v48.091H185V61.6zm4.863 13.987v34.104h11.404V96.629h29.584c3.707 0 7.378-1.272 10.098-3.783 3.047-2.814 4.57-6.235 4.57-10.268V61.6H204.57c-3.715 0-7.388 1.283-10.117 3.797-3.061 2.822-4.59 6.216-4.59 10.188v.003zm11.404 0c0-.836.284-1.528.858-2.078.616-.617 1.312-.925 2.089-.925h29.901v9.993c0 .88-.287 1.594-.855 2.144-.64.617-1.336.922-2.088.922H201.27v-10.06l-.003.003zm-89.215 23.297v10.807H91.148c-6.672 0-12.758-4.335-14.193-10.695l-.025-.109h35.12l.002-.003zm1.62-37.284v10.807H80.711c.272-.619.592-1.197.912-1.815 0-.044.045-.133.045-.177 1.232-3.055 2.643-6.024 4.149-8.815h27.855zm190.471-30.742C300.058 16.2 287.038 5.719 268.481 0c10.981 4.946 18.786 12.206 22.142 21.556.952 1.904 1.723 3.856 2.315 5.945 2.359 8.394 1.181 17.515-2.949 26.772-1.089 2.36-2.315 4.764-3.767 7.124h-17.56c-3.901 0-7.26 1.407-10.163 4.175-2.767 2.678-4.13 6.035-4.13 10.073v15.111h4.445c-15.971 12.388-36.525 23.371-59.845 31.129-36.48 12.162-71.461 13.614-95.51 5.898-9.03-2.86-16.561-7.034-22.006-12.432-1.77-1.723-3.356-3.586-4.674-5.583-.181-.318-.408-.589-.589-.907-1.544-2.497-2.722-5.22-3.54-8.076-.181-.682-.363-1.363-.5-2.042a20.3 20.3 0 0 1-.408-2.315c-.589-4.538-.274-9.213.907-14.022.726-3.13 1.86-6.49 3.404-9.939.863-1.904 1.815-3.812 2.904-5.716 1-1.771 2.089-3.541 3.222-5.356.589-.908 1.181-1.77 1.86-2.678a115.76 115.76 0 0 1 3.222-4.446c4.445-5.809 9.845-11.706 15.971-17.426l.274-.271c-7.941 5.582-15.109 11.572-21.19 17.697-2.256 2.326-4.403 4.544-6.269 6.993l-.265.131H58.041v33.988c0 .271.045.544.045.815-.137 1.997-.045 3.267.045 5.264.137 3.404.452 6.761 1.36 10.028.363 1.316.818 2.586 1.315 3.857 13.341 32.81 73.731 42.927 138.976 21.193 20.827-6.943 39.703-16.2 55.49-26.773.452-.318.907-.589 1.362-.907a178.45 178.45 0 0 0 13.52-10.165 73.76 73.76 0 0 0 2.723-2.315c2.178-1.86 4.221-3.72 6.17-5.627 1.134-1.089 2.268-2.223 3.312-3.357a98.26 98.26 0 0 0 6.26-7.034 68.49 68.49 0 0 0 3.63-4.675c.818-1.089 1.544-2.178 2.267-3.223 1.271-1.904 2.452-3.812 3.493-5.716a74.61 74.61 0 0 0 2.723-5.356 64.9 64.9 0 0 0 2.677-7.124c2.449-8.076 2.812-15.973.726-23.416l.009.006zM275.33 75.692c-1.407 1.589-2.949 3.13-4.537 4.675h-5.671v-4.719c0-.726.363-1.452 1.133-2.223.682-.637 1.497-.952 2.404-.952h9.575l-2.904 3.223v-.003zm27.63-8.865l-3.405 5.58h12.428V61.6h-6.396l-2.625 5.227h-.002zm-9.585 13.685l-6.249 6.988-3.32 3.319h16.053v5.105c-.114.594-.479 1.198-1.098 1.811a3.38 3.38 0 0 1-2.431.987h-21.394c-4.195 3.459-8.706 6.828-13.508 10.081l-1.323.887h37.593c3.882 0 7.26-1.384 10.137-4.148 2.763-2.657 4.144-5.982 4.144-9.978l-.033-15.05H293.37l.005-.003zm76.422-7.927V61.6h-50.793v33.809c0 3.98 1.407 7.322 4.225 10.027 2.954 2.836 6.375 4.255 10.267 4.255h36.301V98.739h-36.301c-.938 0-1.661-.242-2.164-.725-.595-.572-.893-1.197-.893-1.88v-4.98h39.355V80.138h-39.355v-7.552h39.355.003z"/></svg>